# xmcd CD database file
#
# Track frame offsets:
#	150
#	15300
#	37097
#	57587
#	79610
#	102745
#	118702
#	138652
#	154810
#	177045
#	193340
#
# Disc length: 2894 seconds
#
# Revision: 4
# Processed by: cddbd v1.5.2PL0 Copyright (c) Steve Scherf et al.
# Submitted via: CDex 1.51
#
DISCID=990b4c0b
DTITLE=Buster Benton - Spider In My Stew
DYEAR=1900
DGENRE=Blues
TTITLE0=Dangerous Woman
TTITLE1=Sorry
TTITLE2=Love Like I Wanna
TTITLE3=Born With The Blues
TTITLE4=Sweet 94
TTITLE5=Spider In My Stew
TTITLE6=Leave Me Alone
TTITLE7=Funny About Money
TTITLE8=Lonesome For A Dime
TTITLE9=Do It In The Rain
TTITLE10=Disco Blues
EXTD=
EXTT0=
EXTT1=
EXTT2=
EXTT3=
EXTT4=
EXTT5=
EXTT6=
EXTT7=
EXTT8=
EXTT9=
EXTT10=
PLAYORDER=
